<svg xmlns="http://www.w3.org/2000/svg" viewBox="0 0 120.66 41"><title>Asset 1</title><g id="Layer_2" data-name="Layer 2"><g id="livetype"><path d="M110.63.5H8A13.51,13.51,0,0,0,6,.69a6.74,6.74,0,0,0-1.9.63A6.3,6.3,0,0,0,2.5,2.5,6.07,6.07,0,0,0,1.32,4.12,6.74,6.74,0,0,0,.69,6,12.18,12.18,0,0,0,.52,8c0,.31,0,.62,0,.92V32.06c0,.31,0,.61,0,.92a12.18,12.18,0,0,0,.17,2,6.8,6.8,0,0,0,.63,1.91A6.19,6.19,0,0,0,2.5,38.5a6.07,6.07,0,0,0,1.62,1.18,6.74,6.74,0,0,0,1.9.63,13.51,13.51,0,0,0,2,.18H112.64a13.39,13.39,0,0,0,2-.18,6.91,6.91,0,0,0,1.91-.63,6.24,6.24,0,0,0,1.62-1.18,6.68,6.68,0,0,0,1.18-1.61A7.12,7.12,0,0,0,120,35a13.39,13.39,0,0,0,.18-2c0-.31,0-.61,0-.92V8.94c0-.3,0-.61,0-.92A13.39,13.39,0,0,0,120,6a7.05,7.05,0,0,0-.62-1.9,6.54,6.54,0,0,0-1.18-1.62,6.47,6.47,0,0,0-1.62-1.18,6.91,6.91,0,0,0-1.91-.63,13.39,13.39,0,0,0-2-.18h-2Z" fill="none" stroke="#818181" stroke-miterlimit="10"/><path d="M8.94,39.63l-.9,0a11.52,11.52,0,0,1-1.87-.16,5.89,5.89,0,0,1-1.66-.55A5.54,5.54,0,0,1,2.1,36.49a5.79,5.79,0,0,1-.55-1.66A12.1,12.1,0,0,1,1.39,33c0-.21,0-.92,0-.92V8.94s0-.69,0-.89a12,12,0,0,1,.16-1.87A5.69,5.69,0,0,1,2.1,4.52a5.06,5.06,0,0,1,1-1.4,5.52,5.52,0,0,1,1.4-1,5.79,5.79,0,0,1,1.66-.55A12.1,12.1,0,0,1,8,1.39H112.63a12.08,12.08,0,0,1,1.86.16,6,6,0,0,1,1.67.55,5.49,5.49,0,0,1,2.41,2.42,5.92,5.92,0,0,1,.54,1.65,13.68,13.68,0,0,1,.17,1.88v.89c0,.38,0,.74,0,1.1V31c0,.37,0,.72,0,1.08V33a13.12,13.12,0,0,1-.17,1.85,5.85,5.85,0,0,1-.54,1.67,5.42,5.42,0,0,1-1,1.39,5.19,5.19,0,0,1-1.4,1,5.59,5.59,0,0,1-1.66.55,11.52,11.52,0,0,1-1.87.16l-.9,0H8.94Z" fill="none" stroke="#818181" stroke-miterlimit="10"/><g id="_Group_" data-name="&lt;Group&gt;"><g id="_Group_2" data-name="&lt;Group&gt;"><g id="_Group_3" data-name="&lt;Group&gt;"><path id="_Path_" data-name="&lt;Path&gt;" d="M25.5,20.39A5.15,5.15,0,0,1,28,16.07a5.27,5.27,0,0,0-4.15-2.24c-1.75-.19-3.44,1-4.33,1s-2.28-1-3.75-1a5.56,5.56,0,0,0-4.66,2.83c-2,3.49-.51,8.6,1.42,11.42C13.44,29.51,14.57,31,16,31s2-.92,3.73-.92S22,31,23.5,31,26,29.57,27,28.18A11.28,11.28,0,0,0,28.53,25,5,5,0,0,1,25.5,20.39Z" fill="#818181"/><path id="_Path_2" data-name="&lt;Path&gt;" d="M22.66,12a5.13,5.13,0,0,0,1.16-3.63,5.14,5.14,0,0,0-3.34,1.72,4.84,4.84,0,0,0-1.19,3.5A4.3,4.3,0,0,0,22.66,12Z" fill="#818181"/></g></g><path d="M42.8,27.64H38.07L36.93,31h-2l4.48-12.42h2.08L46,31h-2Zm-4.24-1.55h3.75l-1.85-5.45h-.05Z" fill="#818181"/><path d="M55.66,26.47c0,2.81-1.51,4.62-3.78,4.62A3.09,3.09,0,0,1,49,29.51h0V34H47.13v-12h1.8v1.51h0a3.22,3.22,0,0,1,2.89-1.6C54.14,21.85,55.66,23.66,55.66,26.47Zm-1.91,0c0-1.83-1-3-2.39-3S49,24.66,49,26.47s1,3.05,2.38,3.05S53.75,28.32,53.75,26.47Z" fill="#818181"/><path d="M65.62,26.47c0,2.81-1.5,4.62-3.77,4.62A3.08,3.08,0,0,1,59,29.51h0V34H57.1v-12h1.79v1.51h0a3.22,3.22,0,0,1,2.88-1.6C64.11,21.85,65.62,23.66,65.62,26.47Zm-1.91,0c0-1.83-.94-3-2.39-3S59,24.66,59,26.47s.95,3.05,2.37,3.05S63.71,28.32,63.71,26.47Z" fill="#818181"/><path d="M72.21,27.54c.14,1.23,1.33,2,3,2s2.69-.81,2.69-1.92-.68-1.54-2.29-1.94L74,25.33c-2.28-.55-3.34-1.61-3.34-3.34,0-2.15,1.87-3.62,4.52-3.62s4.43,1.47,4.49,3.62H77.76c-.11-1.24-1.14-2-2.63-2s-2.52.75-2.52,1.86c0,.87.65,1.39,2.25,1.79l1.37.33c2.55.6,3.6,1.63,3.6,3.44,0,2.33-1.85,3.78-4.79,3.78-2.75,0-4.61-1.42-4.73-3.66Z" fill="#818181"/><path d="M83.85,19.8v2.14h1.72v1.47H83.85v5c0,.77.34,1.13,1.1,1.13a5,5,0,0,0,.61,0V31a5.21,5.21,0,0,1-1,.09c-1.84,0-2.55-.69-2.55-2.45V23.41H80.66V21.94H82V19.8Z" fill="#818181"/><path d="M86.56,26.47c0-2.85,1.68-4.64,4.3-4.64s4.29,1.79,4.29,4.64-1.66,4.64-4.29,4.64S86.56,29.33,86.56,26.47Zm6.7,0c0-1.95-.9-3.11-2.4-3.11s-2.4,1.16-2.4,3.11.89,3.11,2.4,3.11S93.26,28.43,93.26,26.47Z" fill="#818181"/><path d="M96.69,21.94h1.77v1.54h0a2.16,2.16,0,0,1,2.18-1.63,2.49,2.49,0,0,1,.63.07v1.74a2.27,2.27,0,0,0-.83-.12,1.88,1.88,0,0,0-1.94,2.09V31H96.69Z" fill="#818181"/><path d="M109.88,28.34c-.25,1.64-1.85,2.77-3.9,2.77-2.63,0-4.26-1.77-4.26-4.6s1.64-4.68,4.19-4.68S110,23.55,110,26.3v.63h-6.4v.12A2.36,2.36,0,0,0,106,29.61a2.05,2.05,0,0,0,2.09-1.27Zm-6.28-2.71h4.53a2.18,2.18,0,0,0-2.22-2.29A2.29,2.29,0,0,0,103.6,25.63Z" fill="#818181"/></g><g id="_Group_4" data-name="&lt;Group&gt;"><path d="M38.33,9.23a2.64,2.64,0,0,1,2.8,3c0,1.9-1,3-2.8,3H36.17v-6ZM37.1,14.35h1.12a1.87,1.87,0,0,0,2-2.14,1.88,1.88,0,0,0-2-2.14H37.1Z" fill="#818181"/><path d="M42.18,12.94a2.13,2.13,0,1,1,4.25,0,2.13,2.13,0,1,1-4.25,0Zm3.33,0c0-1-.43-1.54-1.2-1.54S43.1,12,43.1,12.94s.43,1.55,1.21,1.55S45.51,13.92,45.51,12.94Z" fill="#818181"/><path d="M52.07,15.2h-.92l-.93-3.32h-.07l-.93,3.32h-.91l-1.24-4.51H48l.81,3.44h.06l.93-3.44h.85l.93,3.44h.07l.8-3.44h.89Z" fill="#818181"/><path d="M54.35,10.69h.86v.72h.07a1.33,1.33,0,0,1,1.34-.8,1.46,1.46,0,0,1,1.56,1.67V15.2h-.89V12.51c0-.73-.32-1.09-1-1.09a1,1,0,0,0-1.08,1.14V15.2h-.89Z" fill="#818181"/><path d="M59.59,8.94h.89V15.2h-.89Z" fill="#818181"/><path d="M61.72,12.94a2.13,2.13,0,1,1,4.25,0,2.13,2.13,0,1,1-4.25,0Zm3.33,0c0-1-.44-1.54-1.21-1.54s-1.2.57-1.2,1.54.43,1.55,1.2,1.55S65.05,13.92,65.05,12.94Z" fill="#818181"/><path d="M66.9,13.92c0-.81.6-1.27,1.68-1.34l1.22-.07v-.39c0-.47-.32-.74-.93-.74s-.84.18-.93.5h-.87c.1-.78.82-1.27,1.84-1.27s1.77.56,1.77,1.51V15.2h-.86v-.64h-.07a1.49,1.49,0,0,1-1.35.71A1.36,1.36,0,0,1,66.9,13.92Zm2.9-.38v-.38l-1.1.07c-.62,0-.91.26-.91.65s.36.64.84.64A1.06,1.06,0,0,0,69.8,13.54Z" fill="#818181"/><path d="M71.85,12.94c0-1.42.73-2.32,1.87-2.32a1.49,1.49,0,0,1,1.38.79h.06V8.94h.89V15.2H75.2v-.71h-.07a1.56,1.56,0,0,1-1.41.78C72.57,15.27,71.85,14.37,71.85,12.94Zm.92,0c0,1,.45,1.53,1.2,1.53s1.21-.58,1.21-1.52-.47-1.53-1.21-1.53S72.77,12,72.77,12.94Z" fill="#818181"/><path d="M79.73,12.94a2.13,2.13,0,1,1,4.25,0,2.13,2.13,0,1,1-4.25,0Zm3.33,0c0-1-.44-1.54-1.2-1.54s-1.21.57-1.21,1.54.43,1.55,1.21,1.55S83.06,13.92,83.06,12.94Z" fill="#818181"/><path d="M85.17,10.69H86v.72h.07a1.36,1.36,0,0,1,1.35-.8A1.46,1.46,0,0,1,89,12.28V15.2h-.88V12.51c0-.73-.32-1.09-1-1.09a1,1,0,0,0-1.07,1.14V15.2h-.89Z" fill="#818181"/><path d="M94,9.57v1.15h1v.74H94v2.32c0,.47.19.68.63.68l.34,0v.74a3.45,3.45,0,0,1-.48,0c-1,0-1.38-.34-1.38-1.21V11.46h-.72v-.74h.72V9.57Z" fill="#818181"/><path d="M96.2,8.94h.89v2.48h.07a1.37,1.37,0,0,1,1.37-.81,1.48,1.48,0,0,1,1.55,1.68V15.2h-.89V12.51c0-.72-.33-1.08-1-1.08a1.06,1.06,0,0,0-1.14,1.14V15.2H96.2Z" fill="#818181"/><path d="M105.26,14a1.82,1.82,0,0,1-2,1.3A2,2,0,0,1,101.23,13a2.08,2.08,0,0,1,2.08-2.35c1.25,0,2,.85,2,2.27v.31h-3.17v.05a1.18,1.18,0,0,0,1.19,1.29,1.1,1.1,0,0,0,1.08-.55Zm-3.12-1.45h2.27a1.09,1.09,0,0,0-1.11-1.17A1.15,1.15,0,0,0,102.14,12.53Z" fill="#818181"/></g></g></g></svg>