<svg xmlns="http://www.w3.org/2000/svg" viewBox="0 0 120.66 41"><title>Asset 2</title><g id="Layer_2" data-name="Layer 2"><g id="livetype"><path d="M41.84,12.75a2.36,2.36,0,0,1-.67,1.77,2.55,2.55,0,0,1-2,.79,2.73,2.73,0,0,1-2.77-2.78,2.73,2.73,0,0,1,2.77-2.78,2.72,2.72,0,0,1,1.09.22,2.18,2.18,0,0,1,.83.59l-.47.47a1.78,1.78,0,0,0-1.45-.63,2.05,2.05,0,0,0-2.07,2.13,2.05,2.05,0,0,0,2.07,2.13,2,2,0,0,0,1.48-.6A1.65,1.65,0,0,0,41.15,13H39.22v-.64H41.8A3,3,0,0,1,41.84,12.75Z" fill="#818181"/><path d="M45.93,10.52H43.5v1.69h2.19v.64H43.5v1.69h2.43v.65H42.82V9.86h3.11Z" fill="#818181"/><path d="M48.82,15.19h-.69V10.52H46.64V9.86h3.67v.66H48.82Z" fill="#818181"/><path d="M53,15.19V9.86h.68v5.33Z" fill="#818181"/><path d="M56.68,15.19H56V10.52H54.51V9.86h3.66v.66H56.68Z" fill="#818181"/><path d="M65.1,14.51a2.62,2.62,0,0,1-1.95.8,2.66,2.66,0,0,1-2-.8,2.9,2.9,0,0,1,0-4,2.78,2.78,0,0,1,3.91,0,2.86,2.86,0,0,1,0,3.95Zm-3.4-.45a2.05,2.05,0,0,0,2.9,0,2.1,2.1,0,0,0,.59-1.53A2.1,2.1,0,0,0,64.6,11a2.05,2.05,0,0,0-2.9,0,2.1,2.1,0,0,0-.59,1.53A2.1,2.1,0,0,0,61.7,14.06Z" fill="#818181"/><path d="M66.85,15.19V9.86h.83L70.27,14h0l0-1V9.86H71v5.33h-.72l-2.71-4.34h0l0,1v3.32Z" fill="#818181"/><path d="M60.24,23A3.78,3.78,0,1,0,64,26.75,3.72,3.72,0,0,0,60.24,23Zm0,6.07a2.3,2.3,0,1,1,2.13-2.29A2.18,2.18,0,0,1,60.24,29ZM52,23a3.78,3.78,0,1,0,3.79,3.78A3.73,3.73,0,0,0,52,23ZM52,29a2.3,2.3,0,1,1,2.13-2.29A2.19,2.19,0,0,1,52,29Zm-9.85-4.91v1.6H46a3.32,3.32,0,0,1-.87,2,3.93,3.93,0,0,1-3,1.17,4.27,4.27,0,0,1,0-8.53A4.08,4.08,0,0,1,45,21.54l1.13-1.13a5.6,5.6,0,0,0-4-1.62,5.87,5.87,0,1,0,0,11.74,5.39,5.39,0,0,0,4.1-1.65,5.3,5.3,0,0,0,1.39-3.75,5,5,0,0,0-.09-1Zm40.25,1.24A3.5,3.5,0,0,0,79.14,23a3.59,3.59,0,0,0-3.56,3.78,3.69,3.69,0,0,0,3.74,3.78,3.73,3.73,0,0,0,3.15-1.68L81.19,28A2.17,2.17,0,0,1,79.32,29a1.93,1.93,0,0,1-1.83-1.15l5.05-2.09Zm-5.15,1.26a2.07,2.07,0,0,1,2-2.2,1.47,1.47,0,0,1,1.4.8ZM73.11,30.3h1.66V19.19H73.11Zm-2.72-6.49h0a2.63,2.63,0,0,0-2-.84,3.78,3.78,0,0,0,0,7.56,2.6,2.6,0,0,0,2-.86h0v.54c0,1.45-.77,2.22-2,2.22a2.1,2.1,0,0,1-1.91-1.35l-1.44.6a3.58,3.58,0,0,0,3.35,2.24C70.32,33.92,72,32.77,72,30V23.2H70.39ZM68.49,29a2.3,2.3,0,0,1,0-4.58,2.13,2.13,0,0,1,2,2.3A2.12,2.12,0,0,1,68.49,29Zm21.66-9.85h-4V30.3h1.65V26.09h2.32a3.45,3.45,0,1,0,0-6.9Zm0,5.35H87.83v-3.8h2.36a1.9,1.9,0,1,1,0,3.8ZM100.44,23a3.11,3.11,0,0,0-3,1.7l1.47.61a1.57,1.57,0,0,1,1.51-.81,1.6,1.6,0,0,1,1.75,1.43V26a3.71,3.71,0,0,0-1.73-.43c-1.59,0-3.2.87-3.2,2.5A2.57,2.57,0,0,0,100,30.51a2.33,2.33,0,0,0,2.11-1.09h.06v.86h1.6V26C103.81,24.05,102.34,23,100.44,23Zm-.2,6.08c-.55,0-1.3-.27-1.3-.94,0-.86.94-1.18,1.75-1.18a2.93,2.93,0,0,1,1.52.37A2,2,0,0,1,100.24,29Zm9.4-5.84L107.74,28h-.06l-2-4.82h-1.79l3,6.73-1.69,3.74h1.73l4.56-10.47ZM94.71,30.3h1.65V19.19H94.71Z" fill="#818181"/><path d="M110.63.5H8A13.51,13.51,0,0,0,6,.69a6.74,6.74,0,0,0-1.9.63A6.3,6.3,0,0,0,2.5,2.5,6.07,6.07,0,0,0,1.32,4.12,6.74,6.74,0,0,0,.69,6,12.18,12.18,0,0,0,.52,8c0,.31,0,.62,0,.92V32.06c0,.31,0,.61,0,.92a12.18,12.18,0,0,0,.17,2,6.8,6.8,0,0,0,.63,1.91A6.19,6.19,0,0,0,2.5,38.5a6.07,6.07,0,0,0,1.62,1.18,6.74,6.74,0,0,0,1.9.63,13.51,13.51,0,0,0,2,.18H112.64a13.39,13.39,0,0,0,2-.18,6.91,6.91,0,0,0,1.91-.63,6.24,6.24,0,0,0,1.62-1.18,6.68,6.68,0,0,0,1.18-1.61A7.12,7.12,0,0,0,120,35a13.39,13.39,0,0,0,.18-2c0-.31,0-.61,0-.92V8.94c0-.3,0-.61,0-.92A13.39,13.39,0,0,0,120,6a7.05,7.05,0,0,0-.62-1.9,6.54,6.54,0,0,0-1.18-1.62,6.47,6.47,0,0,0-1.62-1.18,6.91,6.91,0,0,0-1.91-.63,13.39,13.39,0,0,0-2-.18h-2Z" fill="none" stroke="#818181" stroke-miterlimit="10"/><path d="M8.94,39.63l-.9,0a11.52,11.52,0,0,1-1.87-.16,5.89,5.89,0,0,1-1.66-.55A5.54,5.54,0,0,1,2.1,36.49a5.79,5.79,0,0,1-.55-1.66A12.1,12.1,0,0,1,1.39,33c0-.21,0-.92,0-.92V8.94s0-.69,0-.89a12,12,0,0,1,.16-1.87A5.69,5.69,0,0,1,2.1,4.52a5.06,5.06,0,0,1,1-1.4,5.52,5.52,0,0,1,1.4-1,5.79,5.79,0,0,1,1.66-.55A12.1,12.1,0,0,1,8,1.39H112.63a12.08,12.08,0,0,1,1.86.16,6,6,0,0,1,1.67.55,5.49,5.49,0,0,1,2.41,2.42,5.92,5.92,0,0,1,.54,1.65,13.68,13.68,0,0,1,.17,1.88v.89c0,.38,0,.74,0,1.1V31c0,.37,0,.72,0,1.08V33a13.12,13.12,0,0,1-.17,1.85,5.85,5.85,0,0,1-.54,1.67,5.42,5.42,0,0,1-1,1.39,5.19,5.19,0,0,1-1.4,1,5.59,5.59,0,0,1-1.66.55,11.52,11.52,0,0,1-1.87.16l-.9,0H8.94Z" fill="none" stroke="#818181" stroke-miterlimit="10"/><path d="M9.52,8.83a1.73,1.73,0,0,0-.41,1.23V29.5a1.73,1.73,0,0,0,.41,1.23l.06.06L20.47,19.91v-.26L9.58,8.76Z" fill="#818181"/><path d="M26.1,23.54l-3.63-3.63v-.26L26.1,16l.08.05,4.3,2.44a1.34,1.34,0,0,1,0,2.54l-4.3,2.44Z" fill="#818181"/><path d="M25.18,24.49l-3.71-3.71-10.95,11a1.42,1.42,0,0,0,1.82.05l12.84-7.29" fill="#818181"/><path d="M25.18,15.07,12.34,7.77a1.42,1.42,0,0,0-1.82.06l11,11Z" fill="#818181"/></g></g></svg>